<svg width="94" height="79" viewBox="0 0 94 79" fill="none" xmlns="http://www.w3.org/2000/svg">
<path d="M72.7914 31.7091C72.8036 31.8981 72.7757 32.0875 72.7095 32.2649C72.6432 32.4423 72.5402 32.6036 72.4071 32.7383C72.274 32.873 72.1139 32.978 71.9373 33.0463C71.7607 33.1147 71.5717 33.1449 71.3826 33.1349H44.4119C44.2221 33.1446 44.0324 33.1144 43.855 33.0462C43.6776 32.978 43.5165 32.8733 43.3821 32.7389C43.2477 32.6046 43.143 32.4434 43.0748 32.2661C43.0066 32.0887 42.9764 31.8989 42.9862 31.7091V28.6539C42.9764 28.4641 43.0066 28.2744 43.0748 28.097C43.143 27.9196 43.2477 27.7585 43.3821 27.6241C43.5165 27.4897 43.6776 27.385 43.855 27.3168C44.0324 27.2486 44.2221 27.2184 44.4119 27.2282H71.3486C71.5377 27.2182 71.7268 27.2484 71.9034 27.3167C72.0799 27.3851 72.2401 27.49 72.3731 27.6247C72.5062 27.7594 72.6093 27.9208 72.6755 28.0982C72.7418 28.2756 72.7697 28.465 72.7574 28.6539L72.7914 31.7091Z" fill="#E74C3D"/>
<path d="M84.7274 40.5691C84.7399 40.7596 84.7116 40.9505 84.6444 41.1292C84.5771 41.3078 84.4725 41.47 84.3376 41.605C84.2026 41.74 84.0403 41.8446 83.8617 41.9118C83.6831 41.9791 83.4921 42.0074 83.3016 41.9949H50.0848C49.8951 42.0077 49.7047 41.9794 49.5269 41.9121C49.349 41.8447 49.1877 41.7398 49.0541 41.6045C48.9204 41.4692 48.8174 41.3067 48.7522 41.128C48.6869 40.9493 48.661 40.7587 48.676 40.5691V37.446C48.6635 37.2578 48.6914 37.0691 48.7578 36.8925C48.8241 36.7159 48.9275 36.5555 49.0609 36.4221C49.1943 36.2887 49.3547 36.1854 49.5313 36.119C49.7078 36.0526 49.8966 36.0247 50.0848 36.0372H83.0131C83.202 36.025 83.3915 36.0529 83.5689 36.1191C83.7463 36.1854 83.9076 36.2884 84.0423 36.4215C84.177 36.5546 84.282 36.7147 84.3503 36.8913C84.4187 37.0679 84.4489 37.2569 84.4389 37.446L84.7274 40.5691Z" fill="#E74C3D"/>
<path d="M93.8119 49.6499C93.8244 49.8404 93.7961 50.0313 93.7289 50.21C93.6616 50.3886 93.557 50.5508 93.4221 50.6858C93.2871 50.8208 93.1249 50.9254 92.9462 50.9926C92.7676 51.0599 92.5766 51.0882 92.3862 51.0757H56.3348C56.145 51.0885 55.9547 51.0602 55.7769 50.9929C55.599 50.9255 55.4377 50.8206 55.304 50.6853C55.1703 50.55 55.0674 50.3875 55.0022 50.2088C54.9369 50.0301 54.911 49.8395 54.926 49.6499V46.5438C54.911 46.3542 54.9369 46.1636 55.0022 45.9849C55.0674 45.8062 55.1703 45.6437 55.304 45.5084C55.4377 45.3731 55.599 45.2682 55.7769 45.2008C55.9547 45.1335 56.145 45.1052 56.3348 45.118H92.3862C92.5766 45.1055 92.7676 45.1339 92.9462 45.2011C93.1249 45.2683 93.2871 45.3729 93.4221 45.5079C93.557 45.6429 93.6616 45.8051 93.7289 45.9837C93.7961 46.1624 93.8244 46.3533 93.8119 46.5438V49.6499Z" fill="#E74C3D"/>
<path d="M93.8119 58.7475C93.8219 58.9366 93.7917 59.1257 93.7234 59.3023C93.655 59.4789 93.5501 59.639 93.4154 59.7721C93.2807 59.9052 93.1193 60.0082 92.9419 60.0744C92.7645 60.1407 92.5751 60.1686 92.3862 60.1563H56.3348C56.1466 60.1688 55.9578 60.141 55.7812 60.0746C55.6046 60.0083 55.4443 59.9049 55.3109 59.7715C55.1775 59.6381 55.0741 59.4777 55.0077 59.3011C54.9414 59.1246 54.9135 58.9358 54.926 58.7475V55.6245C54.911 55.4349 54.9369 55.2442 55.0022 55.0656C55.0674 54.8869 55.1703 54.7244 55.304 54.5891C55.4377 54.4538 55.599 54.3489 55.7769 54.2815C55.9547 54.2142 56.145 54.1859 56.3348 54.1987H92.3862C92.5766 54.1862 92.7676 54.2145 92.9462 54.2818C93.1249 54.349 93.2871 54.4536 93.4221 54.5886C93.557 54.7235 93.6616 54.8858 93.7289 55.0644C93.7961 55.2431 93.8244 55.434 93.8119 55.6245V58.7475Z" fill="#E74C3D"/>
<path d="M84.73 67.5398C84.7397 67.7296 84.7095 67.9193 84.6413 68.0967C84.5731 68.2741 84.4684 68.4352 84.334 68.5696C84.1997 68.704 84.0386 68.8087 83.8612 68.8769C83.6838 68.9451 83.494 68.9753 83.3042 68.9655H50.0874C49.8983 68.9755 49.7092 68.9453 49.5326 68.877C49.3561 68.8086 49.1959 68.7037 49.0629 68.569C48.9298 68.4343 48.8267 68.2729 48.7605 68.0955C48.6943 67.9181 48.6663 67.7287 48.6786 67.5398V64.4167C48.6663 64.2277 48.6943 64.0383 48.7605 63.8609C48.8267 63.6835 48.9298 63.5222 49.0629 63.3875C49.1959 63.2528 49.3561 63.1478 49.5326 63.0795C49.7092 63.0111 49.8983 62.9809 50.0874 62.9909H83.0156C83.2055 62.9812 83.3952 63.0114 83.5726 63.0796C83.75 63.1478 83.9111 63.2524 84.0455 63.3868C84.1799 63.5212 84.2846 63.6823 84.3528 63.8597C84.421 64.0371 84.4512 64.2269 84.4414 64.4167L84.73 67.5398Z" fill="#E74C3D"/>
<path d="M72.7914 76.6205C72.8037 76.8094 72.7758 76.9988 72.7095 77.1762C72.6433 77.3536 72.5402 77.515 72.4072 77.6497C72.2741 77.7844 72.114 77.8893 71.9374 77.9577C71.7608 78.026 71.5717 78.0562 71.3827 78.0462H44.412C44.2222 78.056 44.0325 78.0258 43.8551 77.9576C43.6777 77.8894 43.5166 77.7847 43.3822 77.6503C43.2478 77.5159 43.1431 77.3548 43.0749 77.1774C43.0067 77 42.9765 76.8103 42.9862 76.6205V73.4974C42.9763 73.3083 43.0064 73.1192 43.0748 72.9426C43.1431 72.766 43.2481 72.606 43.3828 72.4729C43.5175 72.3398 43.6789 72.2367 43.8562 72.1705C44.0336 72.1043 44.2231 72.0763 44.412 72.0886H71.3487C71.5369 72.0761 71.7257 72.1039 71.9023 72.1703C72.0789 72.2367 72.2392 72.34 72.3726 72.4734C72.506 72.6068 72.6094 72.7672 72.6758 72.9438C72.7421 73.1204 72.77 73.3091 72.7575 73.4974L72.7914 76.6205Z" fill="#E74C3D"/>
<path d="M21.705 4.55172C21.695 4.74081 21.7252 4.92987 21.7935 5.10645C21.8619 5.28304 21.9669 5.44315 22.1016 5.57624C22.2363 5.70933 22.3976 5.81238 22.575 5.87861C22.7524 5.94485 22.9418 5.97275 23.1307 5.96051H50.0844C50.274 5.97557 50.4646 5.9496 50.6433 5.88436C50.822 5.81913 50.9845 5.71617 51.1198 5.58248C51.2551 5.4488 51.36 5.28754 51.4273 5.10966C51.4947 4.93179 51.523 4.74149 51.5102 4.55172V1.42863C51.5227 1.23816 51.4943 1.04723 51.4271 0.868583C51.3599 0.689939 51.2553 0.527706 51.1203 0.392736C50.9853 0.257765 50.8231 0.153167 50.6445 0.085933C50.4658 0.0186994 50.2749 -0.00961585 50.0844 0.00287403H23.1307C22.9409 -0.00687923 22.7512 0.0233006 22.5738 0.0915013C22.3964 0.159702 22.2353 0.26438 22.1009 0.39877C21.9665 0.533161 21.8618 0.694266 21.7936 0.871665C21.7254 1.04906 21.6952 1.23882 21.705 1.42863V4.55172Z" fill="#E74C3D"/>
<path d="M10.0771 13.6154C10.0646 13.8036 10.0925 13.9924 10.1589 14.169C10.2252 14.3456 10.3286 14.5059 10.462 14.6393C10.5954 14.7727 10.7557 14.8761 10.9323 14.9425C11.1089 15.0088 11.2977 15.0367 11.4859 15.0242H44.4142C44.6032 15.0364 44.7926 15.0085 44.97 14.9423C45.1473 14.8761 45.3087 14.773 45.4434 14.6399C45.5781 14.5068 45.6831 14.3467 45.7514 14.1701C45.8198 13.9936 45.8499 13.8045 45.84 13.6154V10.4923C45.8497 10.3025 45.8195 10.1128 45.7513 9.93538C45.6831 9.75798 45.5784 9.59687 45.444 9.46248C45.3096 9.32809 45.1485 9.22342 44.9711 9.15522C44.7937 9.08701 44.604 9.05681 44.4142 9.06656H11.4859C11.2968 9.05658 11.1078 9.08676 10.9312 9.15511C10.7546 9.22346 10.5945 9.32844 10.4614 9.46313C10.3283 9.59782 10.2253 9.75918 10.159 9.93657C10.0928 10.114 10.0649 10.3034 10.0771 10.4923V13.6154Z" fill="#E74C3D"/>
<path d="M0.995101 22.6961C0.982593 22.8844 1.01045 23.0731 1.07683 23.2497C1.1432 23.4263 1.24655 23.5866 1.37995 23.72C1.51335 23.8534 1.67371 23.9568 1.85031 24.0232C2.0269 24.0895 2.21564 24.1174 2.40388 24.1049H38.4553C38.6435 24.1174 38.8322 24.0895 39.0088 24.0232C39.1854 23.9568 39.3458 23.8534 39.4792 23.72C39.6126 23.5866 39.7159 23.4263 39.7823 23.2497C39.8487 23.0731 39.8765 22.8844 39.864 22.6961V19.573C39.8763 19.3841 39.8484 19.1947 39.7821 19.0173C39.7159 18.8399 39.6129 18.6785 39.4798 18.5438C39.3467 18.4091 39.1866 18.3042 39.01 18.2358C38.8334 18.1674 38.6444 18.1373 38.4553 18.1473H2.40388C2.21479 18.1373 2.02573 18.1674 1.84914 18.2358C1.67256 18.3042 1.51246 18.4091 1.37937 18.5438C1.24628 18.6785 1.14323 18.8399 1.07699 19.0173C1.01076 19.1947 0.982854 19.3841 0.995101 19.573V22.6961Z" fill="#E74C3D"/>
<path d="M0.994996 31.7091C0.982748 31.8981 1.01066 32.0875 1.07689 32.2649C1.14312 32.4423 1.24617 32.6036 1.37926 32.7383C1.51235 32.873 1.67245 32.978 1.84904 33.0463C2.02562 33.1147 2.21468 33.1449 2.40377 33.1349H38.4552C38.6442 33.1449 38.8333 33.1147 39.0099 33.0463C39.1865 32.978 39.3466 32.873 39.4797 32.7383C39.6128 32.6036 39.7158 32.4423 39.782 32.2649C39.8483 32.0875 39.8762 31.8981 39.8639 31.7091V28.6539C39.8762 28.465 39.8483 28.2756 39.782 28.0982C39.7158 27.9208 39.6128 27.7594 39.4797 27.6247C39.3466 27.49 39.1865 27.3851 39.0099 27.3167C38.8333 27.2484 38.6442 27.2182 38.4552 27.2282H2.40377C2.21468 27.2182 2.02562 27.2484 1.84904 27.3167C1.67245 27.3851 1.51235 27.49 1.37926 27.6247C1.24617 27.7594 1.14312 27.9208 1.07689 28.0982C1.01066 28.2756 0.982748 28.465 0.994996 28.6539V31.7091Z" fill="#E74C3D"/>
<path d="M10.0784 40.5691C10.0633 40.7587 10.0893 40.9493 10.1545 41.128C10.2198 41.3067 10.3227 41.4692 10.4564 41.6045C10.5901 41.7398 10.7513 41.8447 10.9292 41.9121C11.1071 41.9794 11.2974 42.0077 11.4872 41.9949H44.4154C44.6059 42.0074 44.7968 41.9791 44.9755 41.9118C45.1541 41.8446 45.3164 41.74 45.4513 41.605C45.5863 41.47 45.6909 41.3078 45.7581 41.1292C45.8254 40.9505 45.8537 40.7596 45.8412 40.5691V37.446C45.8512 37.2569 45.821 37.0679 45.7526 36.8913C45.6843 36.7147 45.5793 36.5546 45.4446 36.4215C45.3099 36.2884 45.1486 36.1854 44.9712 36.1191C44.7938 36.0529 44.6044 36.025 44.4154 36.0372H11.4872C11.2989 36.0247 11.1102 36.0526 10.9336 36.119C10.757 36.1854 10.5966 36.2887 10.4632 36.4221C10.3298 36.5555 10.2265 36.7159 10.1601 36.8925C10.0937 37.0691 10.0659 37.2578 10.0784 37.446V40.5691Z" fill="#E74C3D"/>
<path d="M21.706 49.6498C21.6935 49.8403 21.7218 50.0312 21.7891 50.2098C21.8563 50.3885 21.9609 50.5507 22.0959 50.6857C22.2308 50.8207 22.3931 50.9253 22.5717 50.9925C22.7504 51.0597 22.9413 51.088 23.1318 51.0756H50.0854C50.2759 51.088 50.4668 51.0597 50.6455 50.9925C50.8241 50.9253 50.9863 50.8207 51.1213 50.6857C51.2563 50.5507 51.3609 50.3885 51.4281 50.2098C51.4954 50.0312 51.5237 49.8403 51.5112 49.6498V46.5437C51.5237 46.3532 51.4954 46.1622 51.4281 45.9836C51.3609 45.805 51.2563 45.6428 51.1213 45.5078C50.9863 45.3728 50.8241 45.2682 50.6455 45.201C50.4668 45.1337 50.2759 45.1054 50.0854 45.1179H23.1318C22.9413 45.1054 22.7504 45.1337 22.5717 45.201C22.3931 45.2682 22.2308 45.3728 22.0959 45.5078C21.9609 45.6428 21.8563 45.805 21.7891 45.9836C21.7218 46.1622 21.6935 46.3532 21.706 46.5437V49.6498Z" fill="#E74C3D"/>
</svg>
