<svg width="44" height="40" viewBox="0 0 44 40" fill="none" xmlns="http://www.w3.org/2000/svg">
<path d="M42.2017 17.3908C42.7717 18.1033 43.1992 18.9883 43.1992 20.0008C43.1992 22.0183 41.5792 23.5333 40.0642 24.4408C38.4817 25.3933 36.5167 26.0008 34.9717 26.0008H27.4417L20.2417 38.5933L19.8967 39.2008H19.1992H11.9992H10.4092L10.8442 37.6708L14.1817 26.0008H10.7992L7.55922 30.3208L7.19922 30.8008H6.59922H1.79922H0.261719L0.636719 29.3083L2.96172 20.0008L0.636719 10.6933L0.261719 9.20078H1.79922H6.59922H7.19922L7.55922 9.68078L10.7992 14.0008H14.1817L10.8442 2.33078L10.4092 0.800781H11.9992H19.1992H19.8967L20.2417 1.40828L27.4417 14.0008H34.9717C36.5242 14.0008 38.4892 14.6308 40.0717 15.5908C40.8742 16.0783 41.6317 16.6783 42.2017 17.3908ZM38.8267 17.6383C37.5292 16.8508 35.9842 16.3933 34.9792 16.3933H26.7442H26.0467L25.7017 15.7858L18.5017 3.20078H13.5892L16.9267 14.8708L17.3617 16.4008H15.7717H10.1992H9.59922L9.23922 15.9208L5.99922 11.6008H3.33672L5.36172 19.7083L5.43672 20.0008L5.36172 20.2933L3.33672 28.4008H5.99922L9.23922 24.0808L9.59922 23.6008H10.1992H15.7717H17.3617L16.9267 25.1308L13.5892 36.8008H18.5017L25.7017 24.2083L26.0467 23.6008H26.7442H34.9717C35.9917 23.6008 37.5367 23.1583 38.8267 22.3858C40.1842 21.5683 40.7992 20.6833 40.7992 20.0008C40.7992 19.6933 40.6717 19.3258 40.3267 18.8908C39.9817 18.4558 39.4642 18.0283 38.8267 17.6383Z" fill="#7C4DFF"/>
</svg>
